HIERARCHY
ROOT Hips
{
	OFFSET 0.00000 0.00000 0.00000
	CHANNELS 6 Xposition Yposition Zposition Zrotation Yrotation Xrotation 
	JOINT LHipJoint
	{
		OFFSET 0 0 0
		CHANNELS 3 Zrotation Yrotation Xrotation
		JOINT LeftHip
		{
			OFFSET 1.29432 -1.88279 0.59910
			CHANNELS 3 Zrotation Yrotation Xrotation
			JOINT LeftKnee
			{
				OFFSET 2.63039 -7.22694 0.00000
				CHANNELS 3 Zrotation Yrotation Xrotation
				JOINT LeftAnkle
				{
					OFFSET 2.70674 -7.43672 0.00000
					CHANNELS 3 Zrotation Yrotation Xrotation
					JOINT LeftToe
					{
						OFFSET 0.15066 -0.41394 2.09027
						CHANNELS 3 Zrotation Yrotation Xrotation
						End Site
						{
							OFFSET 0.00000 -0.00000 1.07518
						}
					}
				}
			}
		}
	}
	JOINT RHipJoint
	{
		OFFSET 0 0 0
		CHANNELS 3 Zrotation Yrotation Xrotation
		JOINT RightHip
		{
			OFFSET -1.37068 -1.88279 0.59910
			CHANNELS 3 Zrotation Yrotation Xrotation
			JOINT RightKnee
			{
				OFFSET -2.57023 -7.06166 0.00000
				CHANNELS 3 Zrotation Yrotation Xrotation
				JOINT RightAnkle
				{
					OFFSET -2.76461 -7.59570 0.00000
					CHANNELS 3 Zrotation Yrotation Xrotation
					JOINT RightToe
					{
						OFFSET -0.24175 -0.64785 2.19719
						CHANNELS 3 Zrotation Yrotation Xrotation
						End Site
						{
							OFFSET -0.00000 -0.00000 1.14803
						}
					}
				}
			}
		}
	}
	JOINT lowerback
	{
		OFFSET 0 0 0
		CHANNELS 3 Zrotation Yrotation Xrotation
		JOINT Chest
		{
			OFFSET -0.03138 2.03983 -0.23106
			CHANNELS 3 Zrotation Yrotation Xrotation
			JOINT Chest2
			{
				OFFSET -0.00325 2.06238 -0.06878
				CHANNELS 3 Zrotation Yrotation Xrotation
				JOINT lowerneck
				{
					OFFSET 0 0 0
					CHANNELS 3 Zrotation Yrotation Xrotation
					JOINT Neck
					{
						OFFSET -0.00002 1.75318 0.18090
						CHANNELS 3 Zrotation Yrotation Xrotation
						JOINT Head
						{
							OFFSET 0.08806 1.75856 -0.25387
							CHANNELS 3 Zrotation Yrotation Xrotation
							End Site
							{
								OFFSET 0.02554 1.78597 -0.10684
							}
						}
					}
				}
				JOINT LeftCollar
				{
					OFFSET 0 0 0
					CHANNELS 3 Zrotation Yrotation Xrotation
					JOINT LeftShoulder
					{
						OFFSET 3.09657 1.33597 -0.04414
CHANNELS 3 Zrotation Xrotation Yrotation
						JOINT LeftElbow
						{
OFFSET 0 -5.342980 -0.000000
CHANNELS 3 Zrotation Xrotation Yrotation
							JOINT LeftWrist
							{
OFFSET 0 -3.672620 -0.000000
CHANNELS 3 Zrotation Xrotation Yrotation
								JOINT lhand
								{
									OFFSET 0 0 0
CHANNELS 3 Zrotation Xrotation Yrotation
									JOINT LFingers
									{
OFFSET 0 -0.599300 -0.000000
CHANNELS 3 Zrotation Xrotation Yrotation
										End Site
										{
OFFSET 0 -0.483170 -0.000000
										}
									}
								}
								JOINT LThumb
								{
OFFSET 0 0.000000 0.000000
CHANNELS 3 Zrotation Xrotation Yrotation
									End Site
									{
OFFSET 0 -0.490550 0.490550
									}
								}
							}
						}
					}
				}
				JOINT RightCollar
				{
					OFFSET 0 0 0
					CHANNELS 3 Zrotation Yrotation Xrotation
					JOINT RightShoulder
					{
						OFFSET -3.16460 1.32273 -0.23382
CHANNELS 3 Zrotation Xrotation Yrotation
						JOINT RightElbow
						{
OFFSET 0 -5.549670 0.033480
CHANNELS 3 Zrotation Xrotation Yrotation
							JOINT RightWrist
							{
OFFSET 0 -3.694010 0.000000
CHANNELS 3 Zrotation Xrotation Yrotation
								JOINT rhand
								{
									OFFSET 0 0 0
CHANNELS 3 Zrotation Xrotation Yrotation
									JOINT RFingers
									{
OFFSET 0 -0.638110 0.000000
CHANNELS 3 Zrotation Xrotation Yrotation
										End Site
										{
OFFSET 0 -0.514460 0.000000
										}
									}
								}
								JOINT RThumb
								{
OFFSET 0 0.000000 0.000000
CHANNELS 3 Zrotation Xrotation Yrotation
									End Site
									{
OFFSET 0 -0.522320 0.522320
									}
								}
							}
						}
					}
				}
			}
		}
	}
}
MOTION
Frames: 7
Frame Time: 0.008333333333333333
9.054500 16.292600 15.440600 171.887000 -7.675200 -155.224000 0.000000 0.000000 0.000000 -4.946600 -11.357400 -65.478100 5.326400 13.742200 42.214500 -0.019100 -3.073300 3.094200 0.508000 -4.568800 -12.682700 0.000000 0.000000 0.000000 -14.429400 12.292800 -67.361700 -15.164700 -19.430000 75.732200 -0.504400 3.710900 -12.661800 -1.084600 6.619100 -18.591600 4.292200 3.446300 38.104700 1.915700 3.686600 8.778400 -1.490800 0.662700 -8.744800 -5.293100 -3.614900 -12.262300 -0.805800 -5.810300 -12.945200 0.529500 -3.346500 -1.974400 0.000000 0.000000 0.000000 -10.308300 -49.375300 -84.690700 62.353000 -56.905000 36.305800 53.224200 73.397400 -45.460600 0.000000 0.000000 0.000000 -7.125000 0.000000 0.000000 85.443000 84.790300 -80.209500 0.000000 0.000000 0.000000 -127.087100 -74.541400 -90.344400 -94.816100 -59.912200 -64.169600 -34.982900 -26.746500 -32.061700 0.000000 0.000000 0.000000 7.125000 0.000000 -0.000000 -1.725200 -7.402800 -1.933900
8.911128 16.279799 15.382844 172.366531 -7.572792 -155.019157 0.000000 0.000000 0.000000 -4.859697 -11.112361 -66.764759 5.790346 14.219184 44.129002 -0.032981 -3.531232 2.818800 0.322606 -3.650669 -10.096036 0.000000 0.000000 0.000000 -14.324826 11.521549 -67.501546 -15.166257 -19.430308 75.736970 -0.456005 5.312812 -12.058293 -0.895062 6.027568 -16.865130 4.951941 3.151083 38.075461 1.976069 3.607977 8.620460 -1.739303 0.623470 -8.866964 -5.433318 -3.477403 -12.016868 -0.855368 -5.649796 -13.120693 0.551278 -3.260168 -2.073796 0.000000 0.000000 0.000000 -9.920147 -48.674231 -84.724900 63.503277 -57.171768 37.271212 52.451035 71.601125 -43.857388 0.000000 0.000000 0.000000 -7.125000 0.000000 0.000000 68.233285 83.892418 -62.434217 0.000000 0.000000 0.000000 -127.061846 -74.354220 -89.507181 -94.905165 -59.908852 -64.246663 -36.910126 -28.101847 -32.504693 0.000000 0.000000 0.000000 7.125000 0.000000 0.000000 -2.665915 -8.536589 -3.036943
8.781535 16.211246 15.308856 172.523058 -6.519956 -154.855354 0.000000 0.000000 0.000000 -5.367983 -10.173507 -68.015233 6.309692 14.720502 46.209735 -0.057705 -4.291614 2.117849 0.321848 -3.646490 -10.084105 0.000000 0.000000 0.000000 -14.974114 11.137456 -67.987096 -15.136591 -19.423188 75.647820 -0.380056 6.904567 -11.288391 -0.745251 5.511493 -15.374137 4.595043 3.477772 38.230867 1.823048 3.884417 8.541389 -1.830125 0.753688 -9.013479 -5.289009 -3.341901 -12.107661 -1.015821 -5.496499 -13.104180 0.477963 -3.191728 -2.064539 0.000000 0.000000 0.000000 -9.653096 -47.954799 -85.201106 65.368793 -57.576602 38.842539 52.668565 71.731225 -43.692302 0.000000 0.000000 0.000000 -7.125000 0.000000 0.000000 68.588355 83.748211 -62.628582 0.000000 0.000000 0.000000 -127.329855 -73.876723 -89.311597 -94.919241 -59.908341 -64.258902 -37.493528 -28.392491 -32.867974 0.000000 0.000000 0.000000 7.125000 0.000000 0.000000 -2.890885 -9.134072 -3.317064
8.654348 16.201442 15.238670 172.563937 -5.647726 -154.720491 0.000000 0.000000 0.000000 -5.678530 -9.809245 -68.674430 6.712420 15.084394 47.777263 -0.068497 -4.697431 0.968248 0.360010 -3.854240 -10.667008 0.000000 0.000000 0.000000 -15.476906 10.611110 -67.893288 -14.937966 -19.374112 75.049662 -0.303503 8.372147 -10.673203 -0.778967 5.634085 -15.726644 4.215517 3.652932 38.331230 1.777286 3.975920 8.433077 -1.723437 0.797366 -9.192714 -5.618859 -3.251720 -11.867141 -0.942740 -5.350682 -13.148250 0.565328 -3.101362 -2.112094 0.000000 0.000000 0.000000 -9.433562 -47.470980 -85.377161 66.627185 -57.831688 39.905908 53.953089 72.702550 -43.722305 0.000000 0.000000 0.000000 -7.125000 0.000000 0.000000 76.861466 83.565778 -70.481972 0.000000 0.000000 0.000000 -128.227511 -73.671784 -89.342237 -94.752446 -59.914489 -64.114552 -39.171556 -28.975965 -33.278906 0.000000 0.000000 0.000000 7.125000 0.000000 0.000000 -3.678832 -10.202372 -4.283100
8.524094 16.202779 15.173885 173.248224 -5.291193 -154.571594 0.000000 0.000000 0.000000 -5.211880 -9.656469 -69.132731 6.991581 15.324410 48.841835 -0.065705 -4.834359 0.030380 0.398991 -4.054697 -11.230607 0.000000 0.000000 0.000000 -15.223748 10.184416 -67.675133 -14.704489 -19.313740 74.344824 -0.236554 9.686609 -10.304167 -0.824697 5.793826 -16.187519 4.825961 3.567473 38.272199 1.818205 4.099568 8.413403 -2.041026 0.845375 -9.139542 -5.530185 -3.308068 -11.793926 -1.024696 -5.479398 -13.322283 0.528334 -3.176891 -2.184433 0.000000 0.000000 0.000000 -9.179211 -46.941443 -85.971709 68.058753 -58.092585 41.120894 55.589667 73.822224 -43.535039 0.000000 0.000000 0.000000 -7.125000 0.000000 0.000000 85.228707 83.041081 -78.220369 0.000000 0.000000 0.000000 -128.434568 -73.267354 -88.958371 -95.407031 -59.888025 -64.680776 -40.185650 -29.856233 -34.111192 0.000000 0.000000 0.000000 7.125000 0.000000 0.000000 -3.988141 -11.494590 -4.714511
8.400638 16.186158 15.105497 173.823397 -4.904948 -154.471948 0.000000 0.000000 0.000000 -4.957769 -9.424404 -69.482279 7.223811 15.517382 49.715507 -0.058411 -4.937641 -0.812622 0.456744 -4.335015 -12.021170 0.000000 0.000000 0.000000 -15.099913 9.686095 -67.369193 -14.470891 -19.250642 73.637497 -0.180785 10.972781 -10.192201 -0.945235 6.190731 -17.339363 5.345376 3.505620 38.475398 1.828639 4.230754 8.333475 -2.353165 0.890020 -9.246283 -5.467025 -3.345493 -12.161069 -1.176159 -5.512625 -13.005594 0.453212 -3.203405 -2.025068 0.000000 0.000000 0.000000 -9.028672 -44.613245 -86.377061 70.815018 -58.561740 43.465674 57.645483 77.109834 -43.610420 0.000000 0.000000 0.000000 -7.125000 0.000000 0.000000 89.468895 -71.911321 85.911576 0.000000 0.000000 0.000000 -128.293782 -72.881014 -88.427822 -97.048331 -59.811100 -66.100084 -37.413925 -27.939757 -33.245651 0.000000 0.000000 0.000000 7.125000 0.000000 0.000000 -2.749507 -9.515137 -3.171096
8.289162 16.174520 15.049164 174.019466 -4.817713 -154.318818 0.000000 0.000000 0.000000 -5.094990 -9.368601 -69.977562 7.471033 15.715633 50.633450 -0.059870 -5.277278 -1.277071 0.476935 -4.427419 -12.282691 0.000000 0.000000 0.000000 -15.238698 8.897669 -66.890629 -14.243917 -19.186147 72.947756 -0.161027 12.115174 -10.569199 -1.292998 7.202590 -20.317964 5.617158 3.306390 38.685966 1.868139 4.116737 8.207287 -2.412499 0.824953 -9.445472 -5.450695 -3.227184 -12.309614 -1.326339 -5.372755 -12.960363 0.401980 -3.141829 -1.993899 0.000000 0.000000 0.000000 -9.085704 -45.168771 -86.926667 70.834281 -58.565402 43.481954 59.765749 78.817426 -44.163114 0.000000 0.000000 0.000000 -7.125000 0.000000 0.000000 101.855000 -81.811462 110.033556 0.000000 0.000000 0.000000 -128.394512 -72.796464 -87.973437 -97.992732 -59.756725 -66.916237 -36.774424 -26.420030 -32.624201 0.000000 0.000000 0.000000 7.125000 0.000000 0.000000 -2.563630 -8.617424 -2.922520
